# xmcd
#
# Track frame offsets: 
#        150
#        15259
#        27680
#        41120
#        54145
#        69330
#        81015
#        105950
#        116560
#        126045
#
# Disc length: 1843 seconds
#
# Revision: 0
# Processed by: cddbd v1.4PL0 Copyright (c) Steve Scherf et al.
# Submitted via: ExactAudioCopy v0.95a3
#
DISCID=7207310a
DTITLE=Joe Price - 25 Below
DYEAR=1996
DGENRE=Blues
TTITLE0=Stella
TTITLE1=Tornado Blues
TTITLE2=Mail Box Blues
TTITLE3=Supro Seranade
TTITLE4=Electric Guitar Mama
TTITLE5=Kitchen Picken
TTITLE6=25 Below
TTITLE7=100 Miles
TTITLE8=Main Entrance Boogie
TTITLE9=National of Mexico
EXTD=
EXTT0=
EXTT1=
EXTT2=
EXTT3=
EXTT4=
EXTT5=
EXTT6=
EXTT7=
EXTT8=
EXTT9=
PLAYORDER=
